<svg xmlns="http://www.w3.org/2000/svg" width="343.124" height="289.556" viewBox="0 0 257.343 217.167"><path d="M67.298 44.387H41.786l99.641 172.582L253.824 22.292 241.068.198l-99.641 172.583z" fill="#6685a3"/><path stroke-width=".399" stroke-linejoin="round" fill="none" stroke="#036" d="M67.298 44.387H41.786l99.641 172.582L253.824 22.292 241.068.198l-99.641 172.583z"/><path d="m128.671 150.687 12.756 22.094L241.068.198H16.274L3.518 22.292H202.8z" fill="#036"/><path stroke-width=".399" stroke-linejoin="round" fill="none" stroke="#036" d="m128.671 150.687 12.756 22.094L241.068.198H16.274L3.518 22.292H202.8z"/><path d="M190.044 44.386 202.8 22.292H3.518L115.915 216.97h25.512L41.787 44.387z" fill="#bfccd9"/><path stroke-width=".399" stroke-linejoin="round" fill="none" stroke="#036" d="M190.044 44.386 202.8 22.292H3.518L115.915 216.97h25.512L41.787 44.387z"/></svg>